HIERARCHY
ROOT Hips
{
	OFFSET 0.000000 0.000000 0.000000
	CHANNELS 6 Xposition Yposition Zposition Xrotation Yrotation Zrotation
	JOINT LeftUpLeg_virtual
	{
		OFFSET 0.000000 0.000000 0.000000
		CHANNELS 3 Xrotation Yrotation Zrotation
		JOINT LeftUpLeg
		{
			OFFSET 13.026900 -6.336304 -1.092800
			CHANNELS 3 Xrotation Yrotation Zrotation
			JOINT LeftLeg
			{
				OFFSET 0.524474 -46.096886 9.782700
				CHANNELS 3 Xrotation Yrotation Zrotation
				JOINT LeftFoot
				{
					OFFSET -0.524474 -53.427422 -12.948200
					CHANNELS 3 Xrotation Yrotation Zrotation
					JOINT LeftToeBase
					{
						OFFSET 0.192200 -14.009700 16.364100
						CHANNELS 3 Xrotation Yrotation Zrotation
						JOINT LeftToe_End
						{
							OFFSET -1.784700 -0.561700 9.474800
							CHANNELS 3 Xrotation Yrotation Zrotation
							End Site
							{
								OFFSET 0 0 0
							}
						}
					}
				}
			}
		}
	}
	JOINT RightUpLeg_virtual
	{
		OFFSET 0.000000 0.000000 0.000000
		CHANNELS 3 Xrotation Yrotation Zrotation
		JOINT RightUpLeg
		{
			OFFSET -12.883000 -6.336304 -1.092800
			CHANNELS 3 Xrotation Yrotation Zrotation
			JOINT RightLeg
			{
				OFFSET -0.524587 -46.096825 9.782800
				CHANNELS 3 Xrotation Yrotation Zrotation
				JOINT RightFoot
				{
					OFFSET 0.524587 -53.427383 -12.948300
					CHANNELS 3 Xrotation Yrotation Zrotation
					JOINT RightToeBase
					{
						OFFSET -0.192200 -14.009700 16.364100
						CHANNELS 3 Xrotation Yrotation Zrotation
						JOINT RightToe_End
						{
							OFFSET 1.784700 -0.561700 9.474800
							CHANNELS 3 Xrotation Yrotation Zrotation
							End Site
							{
								OFFSET 0 0 0
							}
						}
					}
				}
			}
		}
	}
	JOINT Spine_virtual
	{
		OFFSET 0.000000 0.000000 0.000000
		CHANNELS 3 Xrotation Yrotation Zrotation
		JOINT Spine
		{
			OFFSET 0.072000 7.257294 -0.789700
			CHANNELS 3 Xrotation Yrotation Zrotation
			JOINT Spine1
			{
				OFFSET 0.000000 12.508769 -0.658067
				CHANNELS 3 Xrotation Yrotation Zrotation
				JOINT Spine1_split
				{
					OFFSET 0.000000 12.508769 -0.658067
					CHANNELS 3 Xrotation Yrotation Zrotation
					JOINT Spine2
					{
						OFFSET 0.000000 12.508769 -0.658067
						CHANNELS 3 Xrotation Yrotation Zrotation
						JOINT Neck_virtual
						{
							OFFSET 0.000000 0.000000 0.000000
							CHANNELS 3 Xrotation Yrotation Zrotation
							JOINT Neck
							{
								OFFSET 0.000000 14.033295 7.520400
								CHANNELS 3 Xrotation Yrotation Zrotation
								JOINT Head
								{
									OFFSET 0.000000 8.198502 5.703100
									CHANNELS 3 Xrotation Yrotation Zrotation
									JOINT HeadTop_End
									{
										OFFSET 0.000000 17.760803 13.332701
										CHANNELS 3 Xrotation Yrotation Zrotation
										End Site
										{
											OFFSET 0 0 0
										}
									}
								}
							}
						}
						JOINT LeftShoulder_virtual
						{
							OFFSET 0.000000 0.000000 0.000000
							CHANNELS 3 Xrotation Yrotation Zrotation
							JOINT LeftShoulder
							{
								OFFSET 6.292450 5.785301 -0.669000
								CHANNELS 3 Xrotation Yrotation Zrotation
								JOINT LeftShoulder_split
								{
									OFFSET 6.292450 5.785301 -0.669000
									CHANNELS 3 Xrotation Yrotation Zrotation
									JOINT LeftArm
									{
										OFFSET 13.907140 -6.093903 1.965100
										CHANNELS 3 Xrotation Yrotation Zrotation
										JOINT LeftForeArm
										{
											OFFSET 34.140198 0.000000 0.000000
											CHANNELS 3 Xrotation Yrotation Zrotation
											JOINT LeftHand
											{
												OFFSET 40.960209 0.000000 0.000000
												CHANNELS 3 Xrotation Yrotation Zrotation
												End Site
												{
													OFFSET 0 0 0
												}
											}
										}
									}
								}
							}
						}
						JOINT RightShoulder_virtual
						{
							OFFSET 0.000000 0.000000 0.000000
							CHANNELS 3 Xrotation Yrotation Zrotation
							JOINT RightShoulder
							{
								OFFSET -6.292450 5.785301 -0.669000
								CHANNELS 3 Xrotation Yrotation Zrotation
								JOINT RightShoulder_split
								{
									OFFSET -6.292450 5.785301 -0.669000
									CHANNELS 3 Xrotation Yrotation Zrotation
									JOINT RightArm
									{
										OFFSET -13.907140 -6.093903 1.965100
										CHANNELS 3 Xrotation Yrotation Zrotation
										JOINT RightForeArm
										{
											OFFSET -34.140198 0.000000 0.000000
											CHANNELS 3 Xrotation Yrotation Zrotation
											JOINT RightHand
											{
												OFFSET -40.960209 0.000000 0.000000
												CHANNELS 3 Xrotation Yrotation Zrotation
												End Site
												{
													OFFSET 0 0 0
												}
											}
										}
									}
								}
							}
						}
					}
				}
			}
		}
	}
}
MOTION
Frames: 4
Frame Time: 0.03333333
-0.319011 84.679878 5.256617 0.000000 0.000000 0.000000 -8.255926 -74.663906 -6.029232 -43.278039 13.132961 51.554603 41.112746 -3.916739 -2.169617 8.535434 -4.446280 -27.025047 -2.655064 0.494809 -0.228565 0.000000 0.000000 0.000000 -10.340908 -74.074132 -7.436367 -36.391866 3.426848 -29.382596 61.066044 11.773405 -7.044801 -16.623415 -6.318836 23.176739 1.774238 0.540557 0.296029 0.000000 0.000000 0.000000 -10.134884 -75.244670 -7.734569 5.422732 -1.544363 -1.151457 2.994105 -0.390091 -3.297516 0.175420 -1.589244 0.728084 0.000000 0.000000 0.000000 6.318179 0.109252 -3.074890 -4.154302 21.697018 7.157334 1.276940 22.816303 -10.324820 0.000000 0.000000 0.000000 5.875044 -0.211418 -3.250652 0.733766 -6.033660 -17.269510 0.540483 -0.772789 -1.742317 -44.376296 -24.783053 -6.050233 -7.289495 -28.901003 -5.785469 0.000000 0.000000 0.000000 4.333148 -0.246222 -3.068807 3.790844 17.269640 3.476366 7.450693 4.410119 2.580870 16.736974 73.058155 -5.647885 107.368689 85.413920 -118.269998 0.000000 0.000000 0.000000 
-0.339655 85.079269 5.121325 0.000000 0.000000 0.000000 -9.669022 -74.896125 -7.883626 -42.381307 12.766216 51.606676 41.034035 -3.973370 -2.165041 8.520664 -4.071595 -26.917294 -2.615372 0.426334 -0.116379 0.000000 0.000000 0.000000 -11.696672 -74.365406 -9.062958 -36.625735 3.714786 -28.983696 59.623487 11.937591 -6.733014 -16.099302 -6.186103 23.495823 1.445390 0.618299 0.289774 0.000000 0.000000 0.000000 -11.232190 -75.615829 -9.243266 4.868507 -1.448214 -0.997388 2.746045 -0.384141 -3.260858 -0.201471 -1.546347 0.814494 0.000000 0.000000 0.000000 6.072069 0.012432 -2.993886 -3.855100 21.782295 7.124951 1.793636 23.131300 -10.703771 0.000000 0.000000 0.000000 5.507768 -0.217356 -3.168638 0.681918 -5.997996 -17.445731 0.472525 0.331743 -2.625219 -44.421163 -24.667592 -6.567827 -6.966413 -30.391740 -5.307868 0.000000 0.000000 0.000000 4.148231 -0.267180 -3.075610 3.726917 17.157087 3.502896 7.736837 2.607874 2.306519 16.185813 72.431882 -4.186549 90.546056 86.169421 -101.360260 0.000000 0.000000 0.000000 
-0.092717 85.869637 4.838150 0.000000 0.000000 0.000000 -13.127792 -75.689534 -11.927900 -40.193078 12.662808 51.484084 39.643183 -3.649704 -2.369993 8.473189 -3.134868 -26.403874 -2.875823 0.273230 0.076644 0.000000 0.000000 0.000000 -14.539313 -75.181982 -12.355802 -37.345459 4.048768 -28.515090 57.485884 12.298503 -6.254778 -14.448565 -5.074873 23.988849 1.762963 0.674741 0.456821 0.000000 0.000000 0.000000 -14.236039 -76.316299 -12.830351 4.336221 -0.960506 -0.459715 2.807510 -0.381380 -3.051780 -0.232935 -1.913191 0.678434 0.000000 0.000000 0.000000 6.100091 -0.072995 -2.796208 -4.003473 21.924993 7.182892 2.356829 24.054495 -11.124077 0.000000 0.000000 0.000000 5.324215 -0.243445 -2.929579 0.364594 -6.222251 -17.870223 -0.235871 1.144667 -2.970118 -42.010011 -23.463153 -7.664346 -6.471738 -32.467523 -5.023374 0.000000 0.000000 0.000000 4.163077 -0.259373 -2.892297 3.623428 16.380047 3.992442 6.757155 1.864710 1.977639 14.865031 69.824908 -0.814988 50.469525 85.866393 -60.908451 0.000000 0.000000 0.000000 
0.270573 86.914955 4.554167 0.000000 0.000000 0.000000 -18.572884 -76.856895 -17.929675 -37.124414 12.786155 51.204730 37.574049 -2.987187 -2.765511 8.501982 -1.938087 -25.598099 -3.343725 0.063287 0.300205 0.000000 0.000000 0.000000 -18.410539 -75.953999 -16.735456 -38.117155 4.375510 -27.993580 55.316613 12.538735 -5.672882 -12.237827 -3.498109 24.456925 2.530432 0.709188 0.792322 0.000000 0.000000 0.000000 -18.479108 -76.810135 -17.644610 3.996447 -0.202805 0.312741 3.129124 -0.407510 -2.694917 0.162311 -2.511405 0.833943 0.000000 0.000000 0.000000 6.223282 -0.151999 -2.529788 -4.507746 22.031622 7.299250 2.971581 25.465478 -11.566526 0.000000 0.000000 0.000000 5.384587 -0.308961 -2.604927 -0.095164 -6.888298 -18.652075 -0.888837 1.553186 -2.891206 -36.967668 -21.817076 -9.371672 -5.826150 -35.824585 -4.873626 0.000000 0.000000 0.000000 4.368644 -0.235297 -2.570862 3.540717 15.193807 4.909573 5.010398 2.236196 1.588281 13.445464 65.704651 3.866141 23.341765 83.654272 -33.045432 0.000000 0.000000 0.000000 
